<svg viewBox="0 0 24 24" fill="none" xmlns="http://www.w3.org/2000/svg">
  <path d="M12 0C5.374 0 0 5.373 0 12C0 17.302 3.438 21.8 8.207 23.387C8.806 23.498 9.025 23.126 9.025 22.81C9.025 22.523 9.015 21.768 9.01 20.769C5.672 21.492 4.968 19.158 4.968 19.158C4.422 17.773 3.633 17.404 3.633 17.404C2.546 16.659 3.717 16.675 3.717 16.675C4.922 16.759 5.555 17.912 5.555 17.912C6.625 19.746 8.364 19.216 9.05 18.909C9.158 18.134 9.467 17.604 9.81 17.305C7.145 17 4.344 15.971 4.344 11.374C4.344 10.063 4.809 8.993 5.579 8.153C5.444 7.85 5.039 6.629 5.684 4.977C5.684 4.977 6.689 4.655 8.984 6.207C9.944 5.941 10.964 5.808 11.984 5.803C13.004 5.808 14.024 5.941 14.984 6.207C17.264 4.655 18.269 4.977 18.269 4.977C18.914 6.629 18.509 7.85 18.389 8.153C19.154 8.993 19.619 10.063 19.619 11.374C19.619 15.983 16.814 16.998 14.144 17.294C14.564 17.655 14.954 18.389 14.954 19.513C14.954 21.12 14.939 22.414 14.939 22.809C14.939 23.129 15.149 23.503 15.764 23.384C20.565 21.795 24 17.298 24 12C24 5.373 18.627 0 12 0Z" fill="currentColor"/>
</svg>